<svg xmlns="http://www.w3.org/2000/svg" width="1280" height="800" viewBox="0 0 1280 800"><rect width="100%" height="100%" fill="#0A0A0B"/><path fill="#EC4899" d="M278.595 421.685h16.73q4.61 0 7.75-1.11t5.01-2.95q1.88-1.85 2.71-4.31t.83-5.23q0-2.89-.93-5.19-.92-2.31-2.89-3.94-1.96-1.63-5.07-2.49t-7.47-.86h-16.67zm14.09-63.23h-14.09v25.71h13.16q8.49 0 12.83-3.08 4.33-3.07 4.33-9.77 0-6.95-3.93-9.91-3.94-2.95-12.3-2.95m-30.63-12.79h30.63q8.73 0 14.94 1.66t10.18 4.74q3.96 3.07 5.81 7.44 1.84 4.37 1.84 9.84 0 3.13-.92 5.99t-2.86 5.36q-1.93 2.49-4.92 4.52-2.98 2.03-7.1 3.44 18.33 4.12 18.33 19.8 0 5.66-2.16 10.46-2.15 4.79-6.27 8.27-4.12 3.47-10.15 5.44-6.02 1.97-13.77 1.97h-33.58zm106.52 24.85q7.01 0 12.76 2.27 5.75 2.28 9.84 6.46t6.3 10.21q2.22 6.03 2.22 13.47 0 7.5-2.22 13.53-2.21 6.02-6.3 10.27-4.09 4.24-9.84 6.52-5.75 2.27-12.76 2.27-7.08 0-12.86-2.27-5.78-2.28-9.87-6.52-4.09-4.25-6.33-10.27-2.25-6.03-2.25-13.53 0-7.44 2.25-13.47 2.24-6.03 6.33-10.21t9.87-6.46q5.78-2.27 12.86-2.27m0 53.32q7.87 0 11.65-5.29t3.78-15.5-3.78-15.56-11.65-5.35q-8 0-11.84 5.38-3.85 5.38-3.85 15.53t3.85 15.47q3.84 5.32 11.84 5.32m70.66-53.32q7.01 0 12.76 2.27 5.75 2.28 9.84 6.46t6.3 10.21q2.22 6.03 2.22 13.47 0 7.5-2.22 13.53-2.21 6.02-6.3 10.27-4.09 4.24-9.84 6.52-5.75 2.27-12.76 2.27-7.07 0-12.85-2.27-5.78-2.28-9.87-6.52-4.09-4.25-6.34-10.27-2.24-6.03-2.24-13.53 0-7.44 2.24-13.47 2.25-6.03 6.34-10.21t9.87-6.46q5.78-2.27 12.85-2.27m0 53.32q7.87 0 11.65-5.29 3.79-5.29 3.79-15.5t-3.79-15.56q-3.78-5.35-11.65-5.35-8 0-11.84 5.38t-3.84 15.53 3.84 15.47 11.84 5.32m42.74-80.63h15.19v52.34h2.83q1.54 0 2.43-.4t1.82-1.63l15.68-19.37q.98-1.3 2.18-1.97 1.2-.68 3.11-.68h13.9l-19.62 23.43q-2.09 2.77-4.55 4.25 1.29.92 2.3 2.15 1.02 1.23 1.94 2.64l21.03 30.63h-13.71q-1.79 0-3.08-.58-1.29-.59-2.15-2.13l-16.11-23.92q-.86-1.41-1.79-1.84-.92-.44-2.76-.44h-3.45v28.91h-15.19zm66.24 28.29h15.25v63.1h-15.25zm17.34-18.39q0 1.97-.8 3.69t-2.12 3.02q-1.32 1.29-3.11 2.06-1.78.77-3.81.77-1.97 0-3.72-.77t-3.04-2.06q-1.3-1.3-2.06-3.02-.77-1.72-.77-3.69 0-2.03.77-3.81.76-1.78 2.06-3.08 1.29-1.29 3.04-2.06 1.75-.76 3.72-.76 2.03 0 3.81.76 1.79.77 3.11 2.06 1.32 1.3 2.12 3.08t.8 3.81m26.57 21.16 1.04 4.98q1.91-1.91 4.03-3.54t4.49-2.76q2.37-1.14 5.08-1.79 2.7-.64 5.9-.64 5.17 0 9.16 1.75 4 1.75 6.68 4.92 2.67 3.17 4.06 7.56 1.38 4.4 1.38 9.69v40.16h-15.19v-40.16q0-5.78-2.65-8.95-2.64-3.16-8.05-3.16-3.94 0-7.38 1.78-3.45 1.78-6.52 4.86v45.63h-15.19v-63.1h9.28q2.96 0 3.88 2.77m79.27 27.24q2.83 0 4.92-.77 2.09-.76 3.48-2.12 1.38-1.35 2.09-3.26.71-1.9.71-4.18 0-4.67-2.8-7.41t-8.4-2.74q-5.59 0-8.39 2.74t-2.8 7.41q0 2.22.71 4.12.7 1.91 2.09 3.29 1.38 1.39 3.5 2.15 2.12.77 4.89.77m17.16 35.92q0-1.85-1.11-3.01-1.1-1.17-3.01-1.82-1.91-.64-4.46-.95t-5.41-.46q-2.86-.16-5.9-.28-3.05-.12-5.94-.49-2.52 1.41-4.09 3.32t-1.57 4.43q0 1.66.83 3.1.83 1.45 2.65 2.49 1.81 1.05 4.7 1.63 2.89.59 7.07.59 4.25 0 7.32-.65 3.08-.64 5.08-1.78t2.92-2.71.92-3.41m-3.01-63.78h18.14v5.66q0 2.71-3.26 3.32l-5.66 1.05q1.29 3.26 1.29 7.13 0 4.68-1.87 8.46-1.88 3.78-5.2 6.42-3.32 2.65-7.84 4.09-4.52 1.45-9.75 1.45-1.84 0-3.56-.18-1.73-.19-3.39-.5-2.95 1.79-2.95 4 0 1.91 1.75 2.8 1.76.89 4.65 1.26t6.58.46 7.56.4q3.88.31 7.57 1.08t6.58 2.43 4.64 4.52 1.75 7.35q0 4.18-2.06 8.11-2.06 3.94-5.96 7.02-3.91 3.07-9.6 4.95-5.69 1.87-12.94 1.87-7.14 0-12.43-1.38-5.28-1.39-8.79-3.69-3.51-2.31-5.23-5.32-1.72-3.02-1.72-6.27 0-4.43 2.68-7.42 2.67-2.98 7.34-4.76-2.52-1.29-3.99-3.45-1.48-2.15-1.48-5.65 0-1.42.52-2.93.53-1.5 1.54-2.98 1.02-1.47 2.55-2.8 1.54-1.32 3.63-2.36-4.79-2.59-7.53-6.89-2.74-4.31-2.74-10.09 0-4.67 1.88-8.45 1.87-3.79 5.23-6.46 3.35-2.68 7.93-4.09 4.58-1.42 9.99-1.42 4.06 0 7.63.83t6.52 2.43m116.11-14.82h-39.48v26.32h33.33v13.23h-33.33v36.22h-16.61v-88.93h56.09zm39.05 11.69q7.01 0 12.76 2.27 5.75 2.28 9.84 6.46t6.31 10.21q2.21 6.03 2.21 13.47 0 7.5-2.21 13.53-2.22 6.02-6.31 10.27-4.09 4.24-9.84 6.52-5.75 2.27-12.76 2.27-7.07 0-12.85-2.27-5.78-2.28-9.87-6.52-4.09-4.25-6.34-10.27-2.24-6.03-2.24-13.53 0-7.44 2.24-13.47 2.25-6.03 6.34-10.21t9.87-6.46q5.78-2.27 12.85-2.27m0 53.32q7.87 0 11.66-5.29 3.78-5.29 3.78-15.5t-3.78-15.56q-3.79-5.35-11.66-5.35-7.99 0-11.84 5.38-3.84 5.38-3.84 15.53t3.84 15.47q3.85 5.32 11.84 5.32m56.15-48.53.92 7.14q2.96-5.66 7.01-8.89 4.06-3.23 9.6-3.23 4.37 0 7.01 1.91l-.98 11.38q-.31 1.1-.9 1.56-.58.47-1.56.47-.93 0-2.74-.31-1.82-.31-3.54-.31-2.52 0-4.49.74-1.96.74-3.53 2.12t-2.77 3.35-2.25 4.49v38.87h-15.19v-63.1h8.92q2.34 0 3.26.83t1.23 2.98m47.66 59.29h-15.19v-63.1h9.29q2.95 0 3.87 2.77l.99 4.67q1.66-1.84 3.47-3.38 1.82-1.54 3.88-2.64 2.06-1.11 4.43-1.76 2.36-.64 5.19-.64 5.97 0 9.81 3.23 3.85 3.22 5.75 8.58 1.48-3.14 3.69-5.39 2.22-2.24 4.86-3.66 2.64-1.41 5.63-2.09 2.98-.67 5.99-.67 5.23 0 9.29 1.6t6.83 4.67q2.76 3.08 4.21 7.5 1.44 4.43 1.44 10.15v40.16h-15.19v-40.16q0-6.03-2.64-9.07t-7.75-3.04q-2.34 0-4.33.79-2 .8-3.51 2.31t-2.37 3.78q-.86 2.28-.86 5.23v40.16h-15.25v-40.16q0-6.33-2.55-9.22-2.56-2.89-7.48-2.89-3.32 0-6.18 1.62-2.86 1.63-5.32 4.46z"/></svg>